<?xml version="1.0" standalone="no"?>
<!DOCTYPE svg PUBLIC "-//W3C//DTD SVG 20010904//EN"
 "http://www.w3.org/TR/2001/REC-SVG-20010904/DTD/svg10.dtd">
<svg version="1.0" xmlns="http://www.w3.org/2000/svg"
 width="1280.000000pt" height="1031.000000pt" viewBox="0 0 1280.000000 1031.000000"
 preserveAspectRatio="xMidYMid meet">
<metadata>
Created by potrace 1.15, written by Peter Selinger 2001-2017
</metadata>
<g transform="translate(0.000000,1031.000000) scale(0.100000,-0.100000)"
fill="#000000" stroke="none">
<path d="M9945 10296 c-66 -15 -383 -132 -480 -176 -309 -143 -485 -166 -544
-70 l-19 32 -22 -59 c-63 -166 -15 -273 122 -273 l47 0 -49 -102 c-54 -115
-96 -269 -110 -405 -5 -48 -10 -246 -10 -439 l0 -350 -73 -16 c-232 -51 -360
-151 -360 -283 0 -75 32 -133 113 -207 78 -72 145 -115 256 -163 l79 -34 6
-103 c4 -57 7 -125 8 -151 1 -45 6 -53 59 -109 166 -175 412 -330 615 -389
l77 -22 46 -146 c25 -80 53 -168 61 -194 9 -26 14 -49 12 -51 -13 -11 -198
-73 -346 -116 -273 -79 -379 -117 -520 -185 -213 -104 -312 -215 -301 -337 3
-27 2 -51 -2 -53 -5 -3 -100 -10 -211 -15 -112 -6 -251 -17 -309 -25 -58 -8
-139 -17 -180 -20 -214 -17 -486 -67 -574 -105 -160 -68 -434 -280 -703 -544
l-152 -148 -48 35 c-26 19 -94 86 -150 149 -57 62 -111 118 -120 123 -26 15
-1419 3 -1455 -13 -45 -19 -63 -58 -62 -133 4 -199 177 -332 424 -328 208 5
319 3 325 -3 4 -4 -74 -105 -173 -226 -99 -121 -185 -229 -191 -240 -32 -60 4
-124 91 -163 42 -19 70 -24 138 -24 75 0 93 4 151 31 75 36 152 109 211 199
22 33 47 63 56 67 9 4 67 7 128 7 l111 1 12 -40 c22 -75 121 -257 166 -307 28
-32 64 -59 97 -73 47 -20 61 -22 157 -15 389 25 1181 129 1599 209 39 7 72 11
72 7 0 -4 -30 -13 -67 -20 -38 -8 -106 -29 -153 -48 -49 -20 -428 -123 -900
-244 -448 -116 -855 -224 -904 -240 -194 -65 -385 -179 -516 -309 -133 -132
-207 -271 -236 -445 -23 -131 -10 -260 40 -410 57 -171 109 -262 289 -510 159
-218 366 -531 501 -758 65 -109 117 -199 115 -200 -2 -2 -154 -72 -337 -157
-320 -147 -335 -155 -383 -208 -162 -177 -142 -369 56 -519 211 -160 585 -245
1015 -230 l155 5 549 271 c302 149 555 279 563 289 91 118 166 265 190 374 21
97 8 167 -41 231 l-33 42 68 71 c100 105 101 102 -63 347 -55 82 -98 151 -96
153 2 2 32 -5 65 -15 138 -42 173 -43 1503 -39 1264 4 1276 4 1350 25 111 31
155 49 247 98 261 139 452 380 530 670 26 98 27 108 31 451 4 385 -3 462 -55
613 -33 99 -63 157 -130 259 l-54 82 71 96 c154 205 295 444 344 580 9 24 16
33 19 24 59 -177 146 -270 287 -306 191 -48 399 81 463 287 18 58 297 2123
297 2199 0 104 -50 228 -123 303 -180 184 -477 131 -604 -109 -37 -70 -49
-112 -63 -219 -20 -148 -19 -147 -52 -49 -65 194 -149 299 -302 375 l-90 45
-193 399 c-106 219 -193 401 -193 404 0 4 28 25 63 48 171 113 332 342 381
543 22 92 46 299 46 398 0 131 -39 374 -81 503 -59 183 -142 292 -312 407
-455 308 -1048 503 -1332 438z m1216 -6818 c81 -81 130 -162 171 -284 22 -65
23 -83 23 -339 0 -287 -3 -310 -56 -429 l-21 -48 -20 41 c-26 52 -90 104 -180
145 -142 65 -176 69 -657 75 l-433 6 173 145 c252 209 416 358 654 591 l210
207 44 -32 c24 -17 66 -52 92 -78z"/>
<path d="M568 9041 c-18 -15 -96 -56 -172 -90 -77 -34 -141 -63 -143 -65 -2
-2 42 -167 97 -367 56 -200 114 -411 130 -469 16 -58 52 -188 80 -290 91 -328
110 -400 110 -413 -1 -6 -40 -37 -88 -67 -181 -115 -367 -328 -456 -521 -233
-513 -140 -1177 282 -2009 80 -157 112 -211 99 -165 -40 139 -54 574 -24 740
49 267 154 477 299 596 87 72 229 151 244 136 3 -3 59 -200 125 -438 66 -239
122 -442 125 -451 5 -18 1 -17 235 -49 l156 -21 524 127 c288 70 536 134 551
141 32 16 48 43 48 77 0 13 -27 114 -59 223 -33 109 -112 375 -176 589 -64
215 -147 494 -185 620 -38 127 -120 403 -183 615 -64 212 -166 554 -227 760
-159 534 -161 540 -184 567 -19 21 -79 35 -579 138 -307 63 -566 115 -577 115
-11 0 -34 -13 -52 -29z"/>
<path d="M2668 5122 l-728 -156 0 -293 0 -293 23 0 c12 0 420 -34 907 -75 487
-41 900 -75 919 -75 24 0 92 31 233 106 110 59 202 112 204 118 2 6 10 79 17
162 l13 150 69 66 c39 36 83 76 99 90 l30 25 -500 167 c-274 91 -513 165 -529
165 -17 -1 -357 -72 -757 -157z"/>
</g>
</svg>
