<?xml version="1.0" standalone="no"?>
<!DOCTYPE svg PUBLIC "-//W3C//DTD SVG 20010904//EN"
 "http://www.w3.org/TR/2001/REC-SVG-20010904/DTD/svg10.dtd">
<svg version="1.0" xmlns="http://www.w3.org/2000/svg"
 width="640.000000pt" height="1280.000000pt" viewBox="0 0 640.000000 1280.000000"
 preserveAspectRatio="xMidYMid meet">
<metadata>
Created by potrace 1.15, written by Peter Selinger 2001-2017
</metadata>
<g transform="translate(0.000000,1280.000000) scale(0.100000,-0.100000)"
fill="#000000" stroke="none">
<path d="M3335 12790 c-233 -50 -437 -220 -598 -502 l-42 -73 0 -175 c0 -135
4 -189 17 -235 9 -33 33 -158 52 -278 22 -134 44 -237 57 -265 11 -26 36 -99
55 -162 46 -152 154 -540 154 -550 0 -5 -26 -14 -57 -20 -196 -38 -344 -101
-425 -181 -89 -89 -94 -108 -128 -519 -37 -456 -41 -529 -28 -615 10 -72 9
-89 -11 -164 -15 -63 -21 -115 -21 -200 0 -101 -2 -117 -20 -136 -15 -16 -24
-47 -32 -108 -10 -74 -14 -86 -33 -91 -15 -4 -191 82 -596 290 -316 163 -590
298 -610 301 -48 7 -97 -19 -114 -61 -13 -31 -309 -868 -445 -1259 -34 -98
-60 -183 -57 -190 3 -7 125 -79 272 -162 147 -82 269 -154 270 -160 2 -5 6
-23 9 -38 10 -41 59 -67 131 -68 33 0 76 -6 95 -13 l35 -13 12 -98 c7 -54 14
-99 15 -100 121 -87 277 -163 403 -196 84 -22 223 -24 279 -4 l39 14 231 -122
c127 -67 240 -125 251 -128 11 -3 19 -12 18 -20 -1 -8 -25 -151 -52 -319 -51
-309 -84 -545 -96 -678 -6 -65 -4 -78 20 -130 15 -31 49 -122 76 -202 47 -139
50 -154 69 -360 131 -1404 259 -2296 355 -2468 35 -62 32 -95 -20 -205 l-45
-97 -69 -34 c-285 -144 -528 -323 -583 -430 -28 -54 -20 -135 18 -207 32 -59
66 -88 113 -98 17 -3 113 -4 214 -1 l182 6 216 131 c119 72 235 141 258 152
l41 21 72 -22 c62 -18 104 -22 273 -25 l200 -3 3 -158 2 -158 -93 -194 c-113
-232 -154 -325 -216 -485 l-46 -120 1 -132 c2 -153 7 -165 97 -227 83 -57 112
-57 239 2 143 67 253 140 320 210 122 128 174 241 268 582 95 348 204 667 231
682 15 8 523 98 552 98 10 0 17 -8 17 -20 0 -18 7 -20 80 -20 l80 0 24 49 25
48 113 5 c71 3 127 11 150 21 41 17 258 222 287 271 15 26 20 68 30 256 44
878 30 1454 -39 1567 l-18 30 -378 13 -378 14 -78 72 c-42 39 -93 84 -112 99
l-36 27 0 101 0 101 40 62 41 62 84 542 c68 432 100 610 159 869 l75 326 -14
75 c-7 41 -17 94 -23 117 -8 37 -2 73 59 310 84 326 142 582 164 725 14 90 15
127 6 235 -11 127 -4 393 19 708 5 72 12 306 16 522 l7 392 -224 248 c-464
513 -771 828 -932 956 -185 148 -237 236 -263 450 l-15 119 36 101 c50 140 75
250 75 329 0 78 -6 98 -30 98 -15 0 -18 15 -23 113 -4 61 -7 198 -7 302 0 135
-4 208 -15 250 -31 124 -231 486 -279 505 -11 4 -59 16 -105 26 -68 15 -94 26
-134 57 -48 38 -53 40 -136 43 -47 2 -104 -1 -126 -6z m1641 -8982 c3 -5 4
-11 2 -14 -6 -5 -262 -23 -267 -18 -8 7 62 84 77 84 10 1 33 9 52 19 l35 17
47 -39 c27 -21 51 -43 54 -49z"/>
</g>
</svg>
