<?xml version="1.0" standalone="no"?>
<!DOCTYPE svg PUBLIC "-//W3C//DTD SVG 20010904//EN"
 "http://www.w3.org/TR/2001/REC-SVG-20010904/DTD/svg10.dtd">
<svg version="1.0" xmlns="http://www.w3.org/2000/svg"
 width="1280.000000pt" height="875.000000pt" viewBox="0 0 1280.000000 875.000000"
 preserveAspectRatio="xMidYMid meet">
<metadata>
Created by potrace 1.15, written by Peter Selinger 2001-2017
</metadata>
<g transform="translate(0.000000,875.000000) scale(0.100000,-0.100000)"
fill="#000000" stroke="none">
<path d="M6510 8724 c-36 -14 -83 -30 -105 -35 -22 -6 -56 -20 -75 -33 -59
-39 -159 -146 -172 -185 -20 -59 -16 -286 9 -465 l22 -160 39 -40 c22 -23 52
-64 67 -93 26 -49 27 -58 23 -138 l-6 -85 -58 -73 c-32 -39 -73 -91 -92 -115
-42 -52 -40 -51 -330 -168 -130 -53 -254 -105 -274 -115 -70 -36 -104 -101
-138 -266 -24 -113 -106 -679 -115 -788 -7 -89 9 -527 24 -645 6 -41 19 -196
30 -345 30 -390 36 -427 78 -510 40 -80 96 -176 129 -220 l22 -30 -24 -145
c-12 -80 -23 -166 -23 -191 -1 -42 2 -47 31 -60 38 -17 33 0 93 -314 26 -132
66 -319 90 -415 95 -378 97 -395 129 -785 24 -284 34 -447 61 -960 40 -776 44
-827 63 -849 23 -25 66 -42 130 -51 37 -5 52 -11 52 -23 0 -8 -27 -66 -60
-128 -70 -131 -78 -185 -37 -245 l23 -34 155 1 c112 1 175 6 229 19 82 19 100
29 100 54 0 9 5 32 10 52 8 30 17 38 50 48 48 14 66 44 75 128 6 47 3 68 -10
97 -13 26 -14 40 -6 49 16 20 34 231 34 412 1 155 -1 169 -51 415 -29 140 -57
289 -63 330 -17 119 -22 676 -10 1013 6 169 16 466 21 660 12 424 19 546 30
526 27 -47 79 -323 100 -529 6 -58 26 -247 45 -420 46 -423 63 -652 75 -982
10 -293 9 -304 -36 -628 -25 -176 -28 -224 -28 -496 l-1 -300 28 -37 c27 -36
28 -38 16 -95 -17 -84 -6 -129 43 -172 22 -19 69 -64 104 -99 l64 -64 149 5
c131 5 156 9 203 30 69 33 108 70 108 104 0 33 -34 102 -100 199 -67 99 -65
111 25 143 39 13 76 28 83 34 9 8 12 187 12 832 0 1040 13 1349 81 1922 11 94
23 276 27 405 l7 234 39 5 40 5 -2 70 c-1 39 -7 133 -13 210 l-12 140 57 87
c115 176 154 294 196 588 45 314 25 1243 -41 1850 -17 157 -40 259 -65 289
-31 37 -69 52 -294 117 -194 55 -345 112 -426 159 -85 50 -166 169 -179 265
-6 41 -3 51 27 96 48 71 56 96 67 209 9 91 9 102 -9 131 -18 28 -20 50 -20
204 0 204 1 201 -117 309 l-76 69 -112 21 c-140 26 -155 26 -235 -5z m557
-1337 c-7 -113 -26 -163 -101 -265 -38 -51 -50 -61 -64 -53 -9 5 -61 48 -114
95 l-96 85 -68 -27 c-58 -23 -78 -38 -148 -114 -44 -49 -84 -88 -87 -88 -13 0
-67 144 -93 247 -30 118 -32 155 -9 174 9 8 22 29 30 47 l14 33 99 -94 c113
-108 214 -168 267 -160 24 4 68 39 175 138 l143 133 29 -26 28 -27 -5 -98z
m-22 -214 c-47 -331 -72 -487 -109 -683 -24 -129 -54 -292 -67 -362 -37 -208
-34 -138 5 104 60 376 58 329 19 426 -51 127 -150 331 -177 367 l-25 32 43 49
43 48 63 -52 c35 -29 70 -52 79 -50 8 2 40 38 70 81 30 42 56 77 58 77 2 0 1
-17 -2 -37z m-487 -81 l21 -38 -40 -169 c-29 -123 -39 -184 -35 -220 2 -27 57
-232 120 -455 140 -487 129 -449 118 -430 -22 35 -407 1278 -399 1286 2 2 11
-12 22 -31 10 -19 21 -35 24 -35 4 0 36 29 71 65 35 36 67 65 70 65 4 0 16
-17 28 -38z m279 -1134 c-3 -7 -5 -2 -5 12 0 14 2 19 5 13 2 -7 2 -19 0 -25z"/>
<path d="M1024 8487 c-72 -14 -175 -78 -217 -132 -48 -64 -66 -128 -77 -266
-4 -61 -13 -116 -19 -122 -16 -16 -13 -115 5 -176 12 -41 23 -57 49 -72 24
-14 35 -29 39 -54 4 -19 20 -66 36 -104 21 -49 30 -86 30 -125 0 -54 -1 -56
-41 -81 -46 -29 -307 -159 -511 -254 -76 -35 -153 -78 -172 -95 -33 -29 -36
-38 -55 -151 -32 -188 -40 -299 -45 -615 -4 -191 -12 -346 -23 -440 -20 -161
-23 -572 -5 -755 55 -577 55 -575 79 -575 21 0 23 -5 23 -49 0 -27 8 -76 19
-109 22 -72 104 -198 142 -217 40 -21 113 -36 214 -43 l90 -7 6 -125 c5 -120
10 -141 112 -511 64 -232 110 -421 117 -475 48 -403 70 -682 71 -884 0 -258 5
-295 47 -347 54 -69 85 -249 63 -367 -9 -51 -20 -69 -81 -141 -81 -96 -86
-118 -45 -208 27 -57 31 -60 100 -72 72 -12 95 -14 95 -7 0 4 87 5 192 2 106
-3 206 -3 221 -1 25 3 26 5 14 20 -21 24 -29 134 -17 246 9 90 13 101 44 135
30 33 35 47 51 150 10 68 14 131 10 159 -6 45 -61 272 -110 456 -45 171 -68
537 -53 860 5 121 8 428 6 683 -3 407 -1 462 12 460 26 -5 171 -322 316 -689
l55 -140 -12 -202 c-19 -331 0 -1159 32 -1357 10 -63 34 -144 79 -262 16 -43
26 -58 43 -60 21 -3 22 -9 27 -105 4 -78 9 -106 23 -120 16 -18 16 -23 2 -49
-16 -31 -21 -150 -6 -172 6 -10 56 -13 216 -14 200 0 209 1 224 21 9 12 41 30
71 42 73 27 100 54 100 96 0 56 -28 105 -98 173 -79 76 -102 126 -71 157 11
11 25 51 35 98 9 44 25 116 37 160 22 79 22 92 22 800 -1 841 -3 865 -107
1460 -44 250 -61 373 -60 430 0 44 2 155 3 248 l3 167 27 0 c16 0 30 4 33 8 3
5 30 158 61 340 54 324 55 335 55 529 l0 198 -65 380 c-36 209 -73 438 -81
509 -22 182 -105 410 -159 434 -26 12 -250 74 -514 143 -90 24 -178 52 -195
64 -17 11 -44 42 -60 68 l-29 48 12 82 c14 86 36 148 71 197 28 39 39 155 19
191 -9 15 -16 70 -19 149 -5 110 -9 132 -34 188 -55 120 -170 185 -357 201
-41 3 -93 3 -115 -2z"/>
<path d="M3785 8490 c-11 -5 -46 -19 -77 -30 -66 -24 -135 -86 -167 -149 -16
-31 -25 -81 -37 -208 -30 -303 -20 -366 67 -454 l51 -51 -4 -68 c-2 -37 -10
-75 -17 -84 -24 -29 -266 -174 -514 -309 -131 -71 -251 -140 -266 -153 -31
-26 -34 -40 -71 -324 -51 -401 -62 -703 -58 -1590 l3 -765 35 -11 35 -12 5
-173 c6 -215 13 -229 128 -305 l44 -28 -6 -95 c-3 -53 -11 -222 -16 -376 -11
-278 -34 -602 -48 -660 -4 -16 -7 -351 -7 -742 l0 -712 27 -7 c15 -3 30 -9 33
-13 7 -12 -43 -86 -144 -211 -51 -63 -97 -125 -102 -138 -16 -41 -10 -89 14
-116 20 -24 35 -28 152 -41 71 -8 143 -15 160 -15 39 0 96 31 162 86 36 31 60
44 81 44 25 0 42 13 98 76 l68 76 8 91 c5 51 15 259 22 462 14 384 22 475 61
710 19 121 120 515 215 850 94 328 180 721 180 822 0 57 10 33 36 -84 50 -221
54 -307 65 -1158 5 -440 9 -901 9 -1024 -1 -174 3 -241 16 -299 10 -46 14 -93
11 -124 -6 -48 -5 -50 24 -61 21 -8 27 -16 23 -27 -35 -81 -43 -145 -24 -194
11 -30 59 -56 158 -86 42 -13 105 -43 150 -73 110 -72 165 -94 270 -108 131
-17 239 -7 319 30 59 28 63 32 63 64 0 48 -23 72 -157 170 -130 93 -236 184
-271 231 l-23 31 31 13 30 12 0 93 c0 246 42 707 85 934 72 379 103 810 90
1250 l-7 232 69 45 c71 46 173 146 197 194 13 26 57 218 73 317 l8 50 48 3 47
3 0 112 c0 275 -34 1389 -50 1664 -15 245 -73 648 -115 794 -20 67 -41 134
-48 148 -17 37 -63 59 -337 167 -334 132 -337 133 -408 198 l-62 58 0 64 c0
93 17 160 45 178 32 21 48 102 41 214 -2 48 -4 125 -3 172 4 206 1 215 -102
314 -81 77 -126 95 -264 106 -131 11 -126 11 -152 0z"/>
<path d="M8809 8360 c-44 -4 -81 -15 -110 -32 -56 -33 -133 -114 -155 -164
-31 -71 -20 -217 41 -544 10 -52 31 -109 70 -185 33 -66 55 -123 55 -142 0
-66 -167 -232 -345 -342 -164 -104 -173 -114 -200 -259 -63 -332 -90 -769 -81
-1290 l6 -364 34 -73 c20 -43 56 -97 89 -132 66 -72 64 -62 77 -373 12 -269
16 -320 35 -410 20 -93 129 -754 159 -960 55 -379 61 -453 60 -730 0 -241 -3
-281 -28 -434 -50 -306 -98 -492 -147 -563 -45 -65 -92 -98 -264 -185 -88 -44
-168 -87 -177 -96 -22 -19 -23 -63 -3 -102 15 -28 24 -33 115 -54 28 -6 196 9
280 25 30 6 84 28 120 49 82 49 128 60 270 70 112 7 201 31 238 65 7 7 20 45
28 86 9 41 29 101 44 134 29 59 29 64 40 320 13 304 56 1120 70 1315 10 133
16 186 27 244 l5 29 13 -31 c40 -94 191 -567 220 -687 57 -238 94 -535 156
-1280 17 -199 20 -209 52 -213 14 -2 36 -15 48 -30 17 -22 20 -37 17 -80 -6
-67 -61 -150 -200 -301 -109 -118 -125 -153 -91 -199 27 -36 97 -53 228 -55
101 -2 119 1 214 32 102 33 107 36 185 114 45 43 96 85 113 92 54 23 99 63
117 104 17 36 17 45 2 142 -9 57 -21 129 -27 159 -7 37 -8 286 -4 755 l7 700
-26 103 c-27 106 -41 172 -75 372 -24 140 -55 314 -76 435 -45 256 -65 426
-65 553 0 128 1 134 21 139 19 5 21 11 15 50 -3 24 -10 108 -16 186 -14 191
-25 310 -54 577 l-25 225 31 45 c83 118 216 317 227 337 21 41 43 187 43 288
-1 145 -52 679 -83 860 -37 219 -64 328 -89 368 -35 55 -119 97 -335 165 -95
31 -186 67 -224 89 -71 42 -186 159 -208 212 -18 43 -10 104 23 179 33 74 43
117 44 187 2 75 -25 263 -44 307 -28 66 -85 118 -180 164 -83 41 -95 44 -165
43 -42 -1 -106 -5 -142 -9z"/>
<path d="M11171 8348 c-65 -18 -163 -100 -199 -166 -9 -17 -30 -52 -47 -79
-28 -45 -30 -55 -34 -170 -4 -143 9 -230 49 -328 16 -38 32 -85 35 -104 4 -19
24 -52 45 -75 32 -35 38 -50 43 -103 l7 -63 -58 -47 c-31 -27 -128 -92 -215
-146 -183 -114 -320 -234 -337 -295 -11 -41 -11 -45 -77 -742 l-47 -495 -3
-639 c-3 -426 -1 -647 6 -660 6 -12 12 -70 13 -129 l3 -108 56 -54 c45 -44 64
-55 102 -60 60 -9 89 -2 131 35 18 17 47 33 64 36 17 3 41 17 53 30 27 28 46
31 53 7 3 -10 26 -103 50 -208 24 -104 63 -262 85 -350 42 -163 61 -276 107
-635 21 -167 31 -213 50 -247 23 -40 24 -48 18 -165 -6 -114 -5 -130 21 -223
21 -78 26 -120 25 -193 -1 -98 18 -169 75 -282 24 -48 25 -54 15 -132 -19
-151 -9 -249 26 -262 9 -3 14 -20 14 -50 0 -42 -4 -47 -99 -142 -81 -81 -101
-107 -111 -144 -8 -28 -9 -54 -3 -70 7 -22 16 -26 68 -31 33 -4 135 -7 228 -8
166 -1 167 -1 189 24 19 22 29 25 95 25 71 0 74 1 84 28 6 15 15 74 21 132 8
82 15 110 30 127 19 20 20 34 19 230 -1 114 1 252 5 305 5 83 3 107 -15 160
-17 49 -21 86 -21 181 0 65 -4 148 -10 185 -5 37 -19 135 -30 217 -12 83 -34
200 -50 260 -25 94 -32 146 -45 365 -8 140 -22 325 -30 410 -22 237 -30 476
-16 484 6 4 11 5 11 2 0 -3 27 -117 59 -253 33 -137 69 -318 80 -403 12 -85
35 -229 51 -320 16 -91 36 -221 45 -289 10 -87 21 -135 36 -160 17 -28 26 -80
46 -271 22 -202 29 -239 48 -265 30 -41 35 -80 26 -225 l-7 -125 43 -52 44
-53 -17 -54 c-16 -50 -16 -59 -1 -117 9 -35 19 -98 23 -139 7 -81 16 -100 45
-100 17 0 19 -8 19 -62 0 -63 21 -195 34 -217 4 -6 33 -11 67 -11 34 0 89 -8
124 -17 55 -15 81 -16 192 -7 92 8 142 17 177 32 48 22 49 23 43 59 -10 59
-53 135 -117 208 -33 37 -60 76 -60 85 0 9 11 22 25 28 29 13 29 10 9 192 -8
74 -19 317 -23 540 -7 286 -14 427 -24 480 -17 84 -71 259 -95 305 -52 101
-122 770 -122 1167 l0 176 37 13 c24 8 67 42 121 97 82 83 84 86 94 151 5 36
16 73 24 81 16 19 33 129 79 505 54 450 61 600 41 850 -10 116 -22 228 -28
250 -5 22 -61 198 -124 390 -63 193 -123 391 -134 442 -11 50 -24 102 -29 116
-20 53 -53 68 -436 202 -263 92 -316 116 -372 168 -51 47 -53 67 -13 126 19
27 30 57 30 78 0 19 16 82 36 140 41 125 44 172 15 278 -18 63 -33 91 -85 159
-35 45 -86 102 -113 127 -43 40 -58 48 -114 58 -78 13 -201 13 -248 -1z"/>
<path d="M1526 887 c3 -10 9 -15 12 -12 3 3 0 11 -7 18 -10 9 -11 8 -5 -6z"/>
</g>
</svg>
