<?xml version="1.0" standalone="no"?>
<!DOCTYPE svg PUBLIC "-//W3C//DTD SVG 20010904//EN"
 "http://www.w3.org/TR/2001/REC-SVG-20010904/DTD/svg10.dtd">
<svg version="1.0" xmlns="http://www.w3.org/2000/svg"
 width="1280.000000pt" height="1217.000000pt" viewBox="0 0 1280.000000 1217.000000"
 preserveAspectRatio="xMidYMid meet">
<metadata>
Created by potrace 1.15, written by Peter Selinger 2001-2017
</metadata>
<g transform="translate(0.000000,1217.000000) scale(0.100000,-0.100000)"
fill="#000000" stroke="none">
<path d="M3740 12076 c-687 -298 -1230 -597 -1590 -874 -177 -137 -333 -317
-414 -480 l-27 -53 -43 58 c-61 82 -127 140 -201 175 -229 107 -518 -24 -649
-294 -25 -51 -55 -128 -66 -171 -28 -113 -43 -317 -33 -472 l8 -130 23 46 c47
96 197 205 362 263 158 55 331 36 463 -51 31 -20 57 -41 57 -45 0 -4 -12 -19
-26 -33 -14 -14 -37 -51 -52 -83 -27 -56 -27 -59 -26 -267 0 -170 5 -234 23
-338 34 -193 83 -331 147 -406 l26 -32 -84 -87 c-74 -76 -87 -96 -98 -142 -40
-168 65 -500 278 -875 79 -140 227 -357 298 -439 149 -170 299 -206 488 -118
l62 29 53 -91 c125 -210 354 -576 488 -778 l144 -217 -21 -73 c-12 -40 -37
-122 -57 -181 -24 -76 -33 -118 -29 -140 7 -39 61 -155 83 -180 23 -24 16 -27
-47 -15 -80 15 -240 3 -352 -26 -81 -21 -139 -44 -294 -112 -6 -3 -21 11 -32
30 -19 31 -31 38 -119 65 -54 17 -159 45 -233 62 -74 17 -136 32 -138 33 -1 2
9 45 23 97 45 170 84 464 105 794 15 238 14 248 -16 285 -74 88 -306 143 -604
143 -303 0 -489 -57 -544 -167 -64 -129 5 -471 188 -926 l44 -110 -68 0 c-89
0 -215 -18 -260 -36 -45 -19 -77 -49 -103 -99 -19 -35 -22 -58 -24 -185 -1
-133 -6 -165 -52 -380 l-50 -235 15 -65 c77 -331 312 -856 444 -990 51 -52 64
-59 165 -93 61 -20 161 -46 222 -59 l113 -23 -6 -160 c-11 -271 23 -701 81
-1045 14 -84 23 -155 20 -158 -5 -5 -218 -42 -1317 -228 -258 -43 -468 -81
-468 -84 0 -3 100 -34 223 -69 122 -35 413 -119 647 -186 234 -68 646 -187
915 -265 270 -78 659 -190 865 -250 206 -60 611 -177 900 -260 289 -83 694
-200 900 -260 206 -60 611 -177 900 -260 289 -83 687 -199 884 -256 l360 -104
2950 1116 c1623 614 3014 1140 3090 1169 94 35 133 54 120 58 -10 3 -262 47
-559 97 -297 50 -641 109 -765 130 -124 21 -364 62 -535 91 -1403 237 -1500
255 -1503 271 -2 9 143 613 322 1342 179 730 326 1330 326 1335 0 5 -52 7
-117 5 -65 -3 -599 -18 -1188 -35 -949 -26 -1303 -43 -1322 -63 -3 -3 -348
-1311 -464 -1756 -23 -91 -43 -167 -45 -169 -2 -2 -30 13 -63 34 -56 33 -61
39 -61 71 0 40 -36 84 -69 84 -11 0 -29 14 -41 30 -52 73 -168 92 -298 51
l-68 -22 -46 20 c-95 40 -236 71 -399 86 l-65 6 -43 187 c-91 401 -175 674
-266 866 -38 81 -115 172 -193 230 -118 86 -316 161 -510 193 -59 9 -109 18
-111 19 -1 2 11 20 28 41 53 67 80 142 105 295 l24 145 109 144 c403 531 964
1395 1034 1593 51 145 -3 878 -112 1530 -11 65 -18 120 -15 123 2 3 145 -52
318 -121 173 -68 395 -152 493 -185 221 -75 415 -118 415 -93 0 4 -130 268
-289 587 -384 771 -608 1183 -813 1498 l-90 137 57 66 58 65 -23 17 c-67 49
-212 133 -343 197 -311 154 -608 239 -957 276 -136 14 -519 6 -632 -14 l-76
-13 -6 29 c-3 16 -6 104 -7 196 -1 91 -4 176 -7 188 -7 21 -14 19 -222 -71z
m1330 -8279 c29 -43 87 -115 130 -160 64 -68 80 -92 94 -140 28 -95 119 -181
255 -238 58 -24 67 -32 78 -66 18 -51 38 -69 109 -98 32 -14 55 -25 50 -25 -5
0 -209 -45 -452 -100 -243 -55 -447 -100 -453 -100 -14 0 -15 276 -1 390 14
114 126 628 135 619 2 -2 26 -39 55 -82z m997 -608 c28 -42 23 -58 -19 -59 -9
0 -24 -3 -34 -7 -15 -5 -16 -2 -11 23 7 37 25 84 32 84 2 0 17 -18 32 -41z"/>
</g>
</svg>
