<?xml version="1.0" encoding="iso-8859-1"?>
<!-- Generator: Adobe Illustrator 19.0.0, SVG Export Plug-In . SVG Version: 6.00 Build 0)  -->
<svg version="1.1" id="Layer_1" xmlns="http://www.w3.org/2000/svg" xmlns:xlink="http://www.w3.org/1999/xlink" x="0px" y="0px"
	 viewBox="0 0 459.925 459.925" style="enable-background:new 0 0 459.925 459.925;" xml:space="preserve">
<g>
	<g>
		<g>
			<path d="M205.134,165.983l5.852-1.662c6.333-1.799,12.738-2.064,18.821-1.023l-20.071-37.823
				c-2.984-5.623-9.962-7.764-15.585-4.778c-5.623,2.984-7.763,9.962-4.778,15.585L205.134,165.983z"/>
			<circle cx="115.691" cy="52.999" r="48.581"/>
			<path d="M443.217,225.51h-183.01h-32.109l0.246-0.07c11.098-3.151,17.538-14.702,14.387-25.799
				c-3.15-11.098-14.704-17.537-25.799-14.387l-67.941,19.294l-33.098-55.382l33.722,32.584l8.947-2.541l1.576-22.206
				c1.218-17.157-11.703-32.053-28.861-33.271l-52.861-3.752c-18.098-1.285-33.486,13.14-33.348,31.302l1.157,152.141H33.42V149.479
				c0-9.229-7.481-16.71-16.71-16.71S0,140.251,0,149.479c0,6.56,0,281.061,0,289.317c0,9.228,7.482,16.71,16.71,16.71
				c9.228,0,16.71-7.482,16.71-16.71v-46.524h95.781v46.524c0,9.228,7.481,16.71,16.71,16.71s16.71-7.482,16.71-16.71
				c0-127.251,0.094-119.095-0.195-121.082l13.212,3.411l14.372,112.49c1.754,13.727,14.301,23.441,28.04,21.686
				c13.731-1.754,23.44-14.308,21.687-28.04l-16.525-129.336c-1.3-10.173-8.667-18.529-18.598-21.092l-40.638-10.492
				c-12.373,3.514-9.672,2.747-22.326,6.34c-16.758,4.759-34.201-4.968-38.961-21.726l-0.016-0.058l-22.64-80.3l41.319,69.137
				c3.84,6.425,10.718,10.174,17.93,10.174c3.999,0,0.053,0.809,70.539-19.208c-2.859,2.999-4.625,7.049-4.625,11.52
				c0,9.201,7.522,16.71,16.71,16.71h93.945v163.157h-23.057c-9.228,0-16.71,7.481-16.71,16.71c0,9.228,7.481,16.71,16.71,16.71
				h79.533c9.229,0,16.71-7.482,16.71-16.71c0-9.229-7.481-16.71-16.71-16.71H349.27V258.93h93.945c9.229,0,16.71-7.481,16.71-16.71
				C459.925,232.991,452.445,225.51,443.217,225.51z M129.201,336.844v32.375H33.42v-32.375H129.201z"/>
		</g>
	</g>
</g>
<g>
</g>
<g>
</g>
<g>
</g>
<g>
</g>
<g>
</g>
<g>
</g>
<g>
</g>
<g>
</g>
<g>
</g>
<g>
</g>
<g>
</g>
<g>
</g>
<g>
</g>
<g>
</g>
<g>
</g>
</svg>
